<svg width="16" height="17" viewBox="0 0 16 17" fill="none" xmlns="http://www.w3.org/2000/svg">
<path d="M8.27501 1.26563C8.45834 1.44896 8.55434 1.68229 8.56301 1.96562C8.57168 2.24896 8.48401 2.48229 8.30001 2.66563L3.40001 7.56563L14.575 7.56563C14.8583 7.56563 15.096 7.66162 15.288 7.85363C15.48 8.04563 15.5757 8.28296 15.575 8.56563C15.575 8.84896 15.479 9.08663 15.287 9.27863C15.095 9.47063 14.8577 9.56629 14.575 9.56563L3.40001 9.56563L8.30001 14.4656C8.48334 14.649 8.57101 14.8823 8.56301 15.1656C8.55501 15.449 8.45901 15.6823 8.27501 15.8656C8.09168 16.049 7.85834 16.1406 7.57501 16.1406C7.29167 16.1406 7.05834 16.049 6.87501 15.8656L0.275009 9.26562C0.175009 9.18229 0.104008 9.07796 0.0620079 8.95263C0.0200081 8.82729 -0.000658989 8.69829 7.62939e-06 8.56563C7.62939e-06 8.43229 0.0206747 8.30729 0.0620079 8.19063C0.103341 8.07396 0.174342 7.96563 0.275009 7.86563L6.87501 1.26563C7.05834 1.08229 7.29167 0.990624 7.57501 0.990624C7.85834 0.990624 8.09168 1.08229 8.27501 1.26563Z" fill="#107974"/>
</svg>
