<svg width="16" height="16" viewBox="0 0 16 16" fill="none" xmlns="http://www.w3.org/2000/svg">
<path d="M7.3 15.0156C7.11667 14.8323 7.02067 14.599 7.012 14.3156C7.00334 14.0323 7.091 13.799 7.275 13.6156L12.175 8.71562H1C0.71667 8.71562 0.479004 8.61963 0.287004 8.42762C0.0950036 8.23562 -0.000663206 7.99829 3.4602e-06 7.71562C3.4602e-06 7.43229 0.0960036 7.19462 0.288004 7.00262C0.480004 6.81062 0.717337 6.71496 1 6.71562H12.175L7.275 1.81562C7.09167 1.63229 7.004 1.39896 7.012 1.11562C7.02 0.832292 7.116 0.598958 7.3 0.415625C7.48334 0.232291 7.71667 0.140625 8 0.140625C8.28334 0.140625 8.51667 0.232291 8.7 0.415625L15.3 7.01562C15.4 7.09896 15.471 7.20329 15.513 7.32862C15.555 7.45396 15.5757 7.58296 15.575 7.71562C15.575 7.84896 15.5543 7.97396 15.513 8.09062C15.4717 8.20729 15.4007 8.31562 15.3 8.41562L8.7 15.0156C8.51667 15.199 8.28334 15.2906 8 15.2906C7.71667 15.2906 7.48334 15.199 7.3 15.0156Z" fill="#107974"/>
</svg>
