<svg width="222" height="52" viewBox="0 0 222 52" fill="none" xmlns="http://www.w3.org/2000/svg">
<path fill-rule="evenodd" clip-rule="evenodd" d="M0.338039 5.89318C0.338399 5.89316 0.338869 5.89314 0.178083 3.02809C0.0172978 0.163038 0.0179878 0.163 0.0187878 0.162955L0.0272308 0.162491L0.0476632 0.161396L0.119371 0.15774C0.180662 0.154711 0.268657 0.150573 0.381583 0.145798C0.607392 0.136248 0.933144 0.124137 1.34461 0.11324C2.16702 0.0914595 3.33481 0.0744472 4.73365 0.0926743C7.51955 0.128975 11.2755 0.305567 15.0656 0.879115C18.8042 1.44487 22.8263 2.43177 25.9901 4.2232C29.2106 6.04671 31.964 8.98809 31.964 13.4026C31.964 16.1026 30.5107 18.587 28.9629 20.5386C27.3514 22.5704 25.2692 24.4796 23.2873 26.0881C21.2894 27.7096 19.3048 29.0965 17.8272 30.0744C17.4232 30.3418 17.0552 30.5798 16.7332 30.7849V38.9912L17.7951 38.0754C21.2832 35.0675 25.9421 31.0501 30.625 27.012L34.9942 23.2446C41.2007 17.893 46.7946 13.0701 48.932 11.2286L52.678 15.5766C50.8256 17.1725 46.3743 21.0101 41.1774 25.4911C46.1727 30.4805 49.2062 36.0309 51.0213 40.5125C52.0709 43.104 52.7224 45.3606 53.1138 46.9834C53.3097 47.7958 53.4411 48.452 53.5249 48.9154C53.5668 49.1472 53.5968 49.3309 53.617 49.4621C53.6208 49.4864 53.6242 49.5089 53.6273 49.5295C53.6325 49.5647 53.6369 49.5946 53.6403 49.619L53.647 49.6669L53.6492 49.683L53.65 49.689L53.6503 49.6916C53.6504 49.6927 53.6506 49.6938 50.805 50.0638C47.9594 50.4338 47.9595 50.4348 47.9596 50.4357L47.9582 50.4255C47.9559 50.4092 47.9516 50.3797 47.9451 50.3375C47.932 50.253 47.9101 50.1177 47.8773 49.9362C47.8116 49.5729 47.7026 49.0254 47.5347 48.329C47.1983 46.9344 46.6282 44.954 45.7019 42.667C44.055 38.6007 41.3116 33.6357 36.8168 29.251L34.3728 31.3584C29.69 35.3964 25.0312 39.4138 21.5431 42.4217L15.7381 47.4277C15.738 47.4277 15.7377 47.428 13.8637 45.2549L15.7381 47.4277L10.9941 51.5188V27.5422L12.4102 26.711L12.4111 26.7105L12.4156 26.7078L12.4415 26.6925C12.4658 26.678 12.5039 26.6553 12.5549 26.6246C12.6568 26.5632 12.8102 26.4701 13.0077 26.3478C13.4029 26.1032 13.9732 25.7429 14.6597 25.2885C16.038 24.3764 17.861 23.1007 19.6707 21.6319C21.4965 20.1501 23.222 18.5413 24.4663 16.9724C25.7742 15.3232 26.2248 14.1241 26.2248 13.4026C26.2248 11.8185 25.3637 10.4638 23.1623 9.2173C20.9043 7.93875 17.6974 7.08184 14.2069 6.55362C10.7679 6.0332 7.29478 5.86565 4.65887 5.8313C3.34681 5.81421 2.2555 5.83024 1.49655 5.85034C1.11734 5.86039 0.821841 5.87142 0.624071 5.87979C0.525207 5.88397 0.450831 5.88748 0.402697 5.88986L0.35042 5.89252L0.33947 5.89311L0.338039 5.89318Z" fill="#F0F4F4"/>
<path d="M88.8879 30.1388C88.8879 30.2158 88.857 30.2852 88.7954 30.3468C88.7492 30.393 88.6875 30.4161 88.6105 30.4161H81.0516C80.9746 30.4161 80.936 30.4547 80.936 30.5317V34.1147C80.936 34.1917 80.9746 34.2302 81.0516 34.2302H86.0215C86.0986 34.2302 86.1602 34.2611 86.2064 34.3227C86.2681 34.3689 86.2989 34.4306 86.2989 34.5076V36.7499C86.2989 36.8269 86.2681 36.8963 86.2064 36.9579C86.1602 37.0041 86.0986 37.0273 86.0215 37.0273H81.0516C80.9746 37.0273 80.936 37.0658 80.936 37.1428V43.5228C80.936 43.5998 80.9052 43.6692 80.8436 43.7308C80.7974 43.7771 80.7357 43.8002 80.6587 43.8002H77.9541C77.8771 43.8002 77.8077 43.7771 77.7461 43.7308C77.6998 43.6692 77.6767 43.5998 77.6767 43.5228V27.8965C77.6767 27.8195 77.6998 27.7578 77.7461 27.7116C77.8077 27.65 77.8771 27.6191 77.9541 27.6191H88.6105C88.6875 27.6191 88.7492 27.65 88.7954 27.7116C88.857 27.7578 88.8879 27.8195 88.8879 27.8965V30.1388Z" fill="#F0F4F4"/>
<path d="M95.1654 43.8002C95.0884 43.8002 95.019 43.7771 94.9574 43.7308C94.9112 43.6692 94.888 43.5998 94.888 43.5228V27.8965C94.888 27.8195 94.9112 27.7578 94.9574 27.7116C95.019 27.65 95.0884 27.6191 95.1654 27.6191H97.87C97.947 27.6191 98.0087 27.65 98.0549 27.7116C98.1165 27.7578 98.1474 27.8195 98.1474 27.8965V43.5228C98.1474 43.5998 98.1165 43.6692 98.0549 43.7308C98.0087 43.7771 97.947 43.8002 97.87 43.8002H95.1654Z" fill="#F0F4F4"/>
<path d="M116.402 27.6191C116.479 27.6191 116.54 27.65 116.587 27.7116C116.648 27.7578 116.679 27.8195 116.679 27.8965V30.1619C116.679 30.2389 116.648 30.3083 116.587 30.3699C116.54 30.4161 116.479 30.4393 116.402 30.4393H112.264C112.187 30.4393 112.148 30.4778 112.148 30.5548V43.5228C112.148 43.5998 112.118 43.6692 112.056 43.7308C112.01 43.7771 111.948 43.8002 111.871 43.8002H109.167C109.089 43.8002 109.02 43.7771 108.958 43.7308C108.912 43.6692 108.889 43.5998 108.889 43.5228V30.5548C108.889 30.4778 108.851 30.4393 108.774 30.4393H104.751C104.674 30.4393 104.605 30.4161 104.543 30.3699C104.497 30.3083 104.474 30.2389 104.474 30.1619V27.8965C104.474 27.8195 104.497 27.7578 104.543 27.7116C104.605 27.65 104.674 27.6191 104.751 27.6191H116.402Z" fill="#F0F4F4"/>
<path d="M80.6924 8.75823C81.2487 8.75823 81.7377 8.87203 82.1592 9.09964C82.5806 9.32725 82.9052 9.6518 83.1328 10.0733C83.3688 10.4864 83.4869 10.9626 83.4869 11.5022C83.4869 12.0332 83.3646 12.5011 83.1202 12.9057C82.8841 13.3104 82.5469 13.6265 82.1086 13.8541C81.6787 14.0733 81.1813 14.1828 80.6165 14.1828H78.8209C78.7788 14.1828 78.7577 14.2039 78.7577 14.2461V17.4705C78.7577 17.5126 78.7408 17.5506 78.7071 17.5843C78.6818 17.6096 78.6481 17.6222 78.606 17.6222H77.1265C77.0844 17.6222 77.0464 17.6096 77.0127 17.5843C76.9874 17.5506 76.9748 17.5126 76.9748 17.4705V8.90997C76.9748 8.86782 76.9874 8.8341 77.0127 8.80881C77.0464 8.77509 77.0844 8.75823 77.1265 8.75823H80.6924ZM80.4268 12.754C80.8146 12.754 81.1265 12.6444 81.3625 12.4252C81.5986 12.1976 81.7166 11.9026 81.7166 11.5401C81.7166 11.1692 81.5986 10.8699 81.3625 10.6423C81.1265 10.4147 80.8146 10.3009 80.4268 10.3009H78.8209C78.7788 10.3009 78.7577 10.322 78.7577 10.3641V12.6908C78.7577 12.7329 78.7788 12.754 78.8209 12.754H80.4268Z" fill="#F0F4F4"/>
<path d="M93.0676 10.1492C93.0676 10.1913 93.0507 10.2292 93.017 10.263C92.9917 10.2883 92.958 10.3009 92.9158 10.3009H88.7683C88.7262 10.3009 88.7051 10.322 88.7051 10.3641V12.3241C88.7051 12.3662 88.7262 12.3873 88.7683 12.3873H91.487C91.5291 12.3873 91.5628 12.4041 91.5881 12.4379C91.6218 12.4632 91.6387 12.4969 91.6387 12.539V13.7656C91.6387 13.8077 91.6218 13.8457 91.5881 13.8794C91.5628 13.9047 91.5291 13.9173 91.487 13.9173H88.7683C88.7262 13.9173 88.7051 13.9384 88.7051 13.9805V16.029C88.7051 16.0711 88.7262 16.0922 88.7683 16.0922H92.9158C92.958 16.0922 92.9917 16.1091 93.017 16.1428C93.0507 16.1681 93.0676 16.2018 93.0676 16.2439V17.4705C93.0676 17.5126 93.0507 17.5506 93.017 17.5843C92.9917 17.6096 92.958 17.6222 92.9158 17.6222H87.0739C87.0318 17.6222 86.9938 17.6096 86.9601 17.5843C86.9348 17.5506 86.9222 17.5126 86.9222 17.4705V8.92261C86.9222 8.88046 86.9348 8.84674 86.9601 8.82146C86.9938 8.78774 87.0318 8.77088 87.0739 8.77088H92.9158C92.958 8.77088 92.9917 8.78774 93.017 8.82146C93.0507 8.84674 93.0676 8.88046 93.0676 8.92261V10.1492Z" fill="#F0F4F4"/>
<path d="M102.753 8.77088C102.795 8.77088 102.829 8.78774 102.854 8.82146C102.888 8.84674 102.905 8.88046 102.905 8.92261V10.1618C102.905 10.204 102.888 10.2419 102.854 10.2756C102.829 10.3009 102.795 10.3135 102.753 10.3135H100.49C100.448 10.3135 100.427 10.3346 100.427 10.3768V17.4705C100.427 17.5126 100.41 17.5506 100.376 17.5843C100.351 17.6096 100.317 17.6222 100.275 17.6222H98.7954C98.7533 17.6222 98.7154 17.6096 98.6816 17.5843C98.6564 17.5506 98.6437 17.5126 98.6437 17.4705V10.3768C98.6437 10.3346 98.6226 10.3135 98.5805 10.3135H96.3803C96.3381 10.3135 96.3002 10.3009 96.2665 10.2756C96.2412 10.2419 96.2286 10.204 96.2286 10.1618V8.92261C96.2286 8.88046 96.2412 8.84674 96.2665 8.82146C96.3002 8.78774 96.3381 8.77088 96.3803 8.77088H102.753Z" fill="#F0F4F4"/>
<path d="M111.237 17.6222C111.153 17.6222 111.094 17.5843 111.06 17.5084L109.48 14.0058C109.463 13.9721 109.438 13.9552 109.404 13.9552H108.228C108.186 13.9552 108.165 13.9763 108.165 14.0185V17.4705C108.165 17.5126 108.148 17.5506 108.114 17.5843C108.089 17.6096 108.055 17.6222 108.013 17.6222H106.534C106.491 17.6222 106.453 17.6096 106.42 17.5843C106.394 17.5506 106.382 17.5126 106.382 17.4705V8.92261C106.382 8.88046 106.394 8.84674 106.42 8.82146C106.453 8.78774 106.491 8.77088 106.534 8.77088H110.15C110.689 8.77088 111.162 8.88046 111.566 9.09964C111.979 9.31882 112.295 9.63072 112.515 10.0354C112.742 10.44 112.856 10.9078 112.856 11.4389C112.856 12.0122 112.713 12.5053 112.426 12.9184C112.139 13.323 111.739 13.6096 111.225 13.7782C111.183 13.7951 111.17 13.8246 111.187 13.8667L112.907 17.4452C112.923 17.4789 112.932 17.5042 112.932 17.5211C112.932 17.5885 112.885 17.6222 112.793 17.6222H111.237ZM108.228 10.3009C108.186 10.3009 108.165 10.322 108.165 10.3641V12.5264C108.165 12.5685 108.186 12.5896 108.228 12.5896H109.884C110.238 12.5896 110.525 12.4842 110.744 12.2735C110.972 12.0627 111.086 11.7888 111.086 11.4516C111.086 11.1144 110.972 10.8404 110.744 10.6297C110.525 10.4105 110.238 10.3009 109.884 10.3009H108.228Z" fill="#F0F4F4"/>
<path d="M122.3 17.6222C122.216 17.6222 122.161 17.5801 122.136 17.4958L121.757 16.2566C121.74 16.2229 121.719 16.206 121.693 16.206H118.583C118.558 16.206 118.537 16.2229 118.52 16.2566L118.153 17.4958C118.128 17.5801 118.073 17.6222 117.989 17.6222H116.383C116.332 17.6222 116.294 17.6096 116.269 17.5843C116.244 17.5506 116.239 17.5042 116.256 17.4452L118.987 8.89732C119.013 8.81303 119.068 8.77088 119.152 8.77088H121.137C121.221 8.77088 121.276 8.81303 121.301 8.89732L124.033 17.4452C124.041 17.4621 124.045 17.4831 124.045 17.5084C124.045 17.5843 123.999 17.6222 123.906 17.6222H122.3ZM118.975 14.7519C118.966 14.8024 118.983 14.8277 119.025 14.8277H121.251C121.301 14.8277 121.318 14.8024 121.301 14.7519L120.163 10.9964C120.155 10.9626 120.142 10.95 120.126 10.9584C120.109 10.9584 120.096 10.9711 120.088 10.9964L118.975 14.7519Z" fill="#F0F4F4"/>
<path d="M132.519 17.6222C132.476 17.6222 132.439 17.6096 132.405 17.5843C132.38 17.5506 132.367 17.5126 132.367 17.4705V8.92261C132.367 8.88046 132.38 8.84674 132.405 8.82146C132.439 8.78774 132.476 8.77088 132.519 8.77088H133.998C134.04 8.77088 134.074 8.78774 134.099 8.82146C134.133 8.84674 134.15 8.88046 134.15 8.92261V12.4632C134.15 12.4884 134.158 12.5053 134.175 12.5137C134.192 12.5137 134.209 12.5053 134.226 12.4884L137.147 8.85939C137.197 8.80038 137.26 8.77088 137.336 8.77088H139.005C139.073 8.77088 139.115 8.79195 139.132 8.8341C139.149 8.86782 139.14 8.90997 139.107 8.96055L136.287 12.5643C136.261 12.598 136.257 12.6275 136.274 12.6528L139.258 17.4452C139.275 17.4958 139.284 17.5253 139.284 17.5337C139.284 17.5927 139.241 17.6222 139.157 17.6222H137.488C137.404 17.6222 137.345 17.5885 137.311 17.5211L135.06 13.8794C135.052 13.8625 135.039 13.8541 135.022 13.8541C135.005 13.8541 134.989 13.8625 134.972 13.8794L134.175 14.8783C134.158 14.912 134.15 14.9373 134.15 14.9542V17.4705C134.15 17.5126 134.133 17.5506 134.099 17.5843C134.074 17.6096 134.04 17.6222 133.998 17.6222H132.519Z" fill="#F0F4F4"/>
<path d="M145.4 17.7613C144.742 17.7613 144.16 17.6264 143.655 17.3567C143.157 17.0869 142.769 16.7118 142.491 16.2313C142.213 15.7424 142.074 15.1818 142.074 14.5495V11.8436C142.074 11.2198 142.213 10.6676 142.491 10.1871C142.769 9.70659 143.157 9.33568 143.655 9.07435C144.16 8.8046 144.742 8.66972 145.4 8.66972C146.066 8.66972 146.647 8.8046 147.145 9.07435C147.65 9.33568 148.042 9.70659 148.321 10.1871C148.599 10.6676 148.738 11.2198 148.738 11.8436V14.5495C148.738 15.1818 148.599 15.7424 148.321 16.2313C148.042 16.7202 147.65 17.0996 147.145 17.3693C146.647 17.6307 146.066 17.7613 145.4 17.7613ZM145.4 16.2313C145.863 16.2313 146.238 16.0838 146.525 15.7887C146.812 15.4937 146.955 15.1017 146.955 14.6128V11.8309C146.955 11.342 146.812 10.95 146.525 10.655C146.247 10.3515 145.872 10.1997 145.4 10.1997C144.936 10.1997 144.561 10.3515 144.274 10.655C143.996 10.95 143.857 11.342 143.857 11.8309V14.6128C143.857 15.1017 143.996 15.4937 144.274 15.7887C144.561 16.0838 144.936 16.2313 145.4 16.2313Z" fill="#F0F4F4"/>
<path d="M157.527 8.92261C157.527 8.88046 157.54 8.84674 157.565 8.82146C157.599 8.78774 157.637 8.77088 157.679 8.77088H159.158C159.2 8.77088 159.234 8.78774 159.259 8.82146C159.293 8.84674 159.31 8.88046 159.31 8.92261V17.4705C159.31 17.5126 159.293 17.5506 159.259 17.5843C159.234 17.6096 159.2 17.6222 159.158 17.6222H157.729C157.645 17.6222 157.586 17.5885 157.552 17.5211L154.277 12.1091C154.261 12.0838 154.244 12.0754 154.227 12.0838C154.21 12.0838 154.202 12.1007 154.202 12.1344L154.227 17.4705C154.227 17.5126 154.21 17.5506 154.176 17.5843C154.151 17.6096 154.117 17.6222 154.075 17.6222H152.596C152.554 17.6222 152.516 17.6096 152.482 17.5843C152.457 17.5506 152.444 17.5126 152.444 17.4705V8.92261C152.444 8.88046 152.457 8.84674 152.482 8.82146C152.516 8.78774 152.554 8.77088 152.596 8.77088H154.025C154.109 8.77088 154.168 8.8046 154.202 8.87203L157.464 14.2587C157.481 14.284 157.498 14.2966 157.514 14.2966C157.531 14.2882 157.54 14.2671 157.54 14.2334L157.527 8.92261Z" fill="#F0F4F4"/>
<path d="M168.048 17.6222C167.964 17.6222 167.905 17.5843 167.871 17.5084L166.29 14.0058C166.274 13.9721 166.248 13.9552 166.215 13.9552H165.039C164.996 13.9552 164.975 13.9763 164.975 14.0185V17.4705C164.975 17.5126 164.959 17.5506 164.925 17.5843C164.9 17.6096 164.866 17.6222 164.824 17.6222H163.344C163.302 17.6222 163.264 17.6096 163.23 17.5843C163.205 17.5506 163.192 17.5126 163.192 17.4705V8.92261C163.192 8.88046 163.205 8.84674 163.23 8.82146C163.264 8.78774 163.302 8.77088 163.344 8.77088H166.961C167.5 8.77088 167.972 8.88046 168.377 9.09964C168.79 9.31882 169.106 9.63072 169.325 10.0354C169.553 10.44 169.667 10.9078 169.667 11.4389C169.667 12.0122 169.523 12.5053 169.237 12.9184C168.95 13.323 168.55 13.6096 168.035 13.7782C167.993 13.7951 167.981 13.8246 167.998 13.8667L169.717 17.4452C169.734 17.4789 169.743 17.5042 169.743 17.5211C169.743 17.5885 169.696 17.6222 169.603 17.6222H168.048ZM165.039 10.3009C164.996 10.3009 164.975 10.322 164.975 10.3641V12.5264C164.975 12.5685 164.996 12.5896 165.039 12.5896H166.695C167.049 12.5896 167.336 12.4842 167.555 12.2735C167.783 12.0627 167.896 11.7888 167.896 11.4516C167.896 11.1144 167.783 10.8404 167.555 10.6297C167.336 10.4105 167.049 10.3009 166.695 10.3009H165.039Z" fill="#F0F4F4"/>
<path d="M179.111 17.6222C179.027 17.6222 178.972 17.5801 178.947 17.4958L178.567 16.2566C178.551 16.2229 178.529 16.206 178.504 16.206H175.394C175.368 16.206 175.347 16.2229 175.33 16.2566L174.964 17.4958C174.938 17.5801 174.884 17.6222 174.799 17.6222H173.193C173.143 17.6222 173.105 17.6096 173.08 17.5843C173.054 17.5506 173.05 17.5042 173.067 17.4452L175.798 8.89732C175.823 8.81303 175.878 8.77088 175.963 8.77088H177.948C178.032 8.77088 178.087 8.81303 178.112 8.89732L180.843 17.4452C180.852 17.4621 180.856 17.4831 180.856 17.5084C180.856 17.5843 180.81 17.6222 180.717 17.6222H179.111ZM175.786 14.7519C175.777 14.8024 175.794 14.8277 175.836 14.8277H178.062C178.112 14.8277 178.129 14.8024 178.112 14.7519L176.974 10.9964C176.966 10.9626 176.953 10.95 176.936 10.9584C176.919 10.9584 176.907 10.9711 176.898 10.9964L175.786 14.7519ZM176.228 7.9869C176.169 7.9869 176.131 7.97004 176.114 7.93632C176.097 7.9026 176.102 7.86045 176.127 7.80987L176.797 6.53275C176.831 6.45688 176.894 6.41895 176.987 6.41895H178.264C178.323 6.41895 178.361 6.44002 178.378 6.48217C178.403 6.51589 178.399 6.55804 178.365 6.60862L177.467 7.88574C177.425 7.95318 177.366 7.9869 177.29 7.9869H176.228Z" fill="#F0F4F4"/>
<path d="M184.459 17.6222C184.416 17.6222 184.378 17.6096 184.345 17.5843C184.319 17.5506 184.307 17.5126 184.307 17.4705V8.92261C184.307 8.88046 184.319 8.84674 184.345 8.82146C184.378 8.78774 184.416 8.77088 184.459 8.77088H187.62C188.252 8.77088 188.804 8.88468 189.276 9.11229C189.757 9.33146 190.128 9.64337 190.389 10.048C190.65 10.4526 190.781 10.9205 190.781 11.4516V14.9415C190.781 15.4726 190.65 15.9405 190.389 16.3451C190.128 16.7497 189.757 17.0659 189.276 17.2935C188.804 17.5126 188.252 17.6222 187.62 17.6222H184.459ZM186.09 16.029C186.09 16.0711 186.111 16.0922 186.153 16.0922H187.683C188.071 16.0922 188.383 15.9615 188.619 15.7002C188.863 15.4389 188.99 15.0891 188.998 14.6507V11.7424C188.998 11.304 188.876 10.9542 188.631 10.6929C188.395 10.4316 188.075 10.3009 187.67 10.3009H186.153C186.111 10.3009 186.09 10.322 186.09 10.3641V16.029Z" fill="#F0F4F4"/>
<path d="M197.599 17.7613C196.941 17.7613 196.36 17.6264 195.854 17.3567C195.357 17.0869 194.969 16.7118 194.691 16.2313C194.412 15.7424 194.273 15.1818 194.273 14.5495V11.8436C194.273 11.2198 194.412 10.6676 194.691 10.1871C194.969 9.70659 195.357 9.33568 195.854 9.07435C196.36 8.8046 196.941 8.66972 197.599 8.66972C198.265 8.66972 198.846 8.8046 199.344 9.07435C199.85 9.33568 200.242 9.70659 200.52 10.1871C200.798 10.6676 200.937 11.2198 200.937 11.8436V14.5495C200.937 15.1818 200.798 15.7424 200.52 16.2313C200.242 16.7202 199.85 17.0996 199.344 17.3693C198.846 17.6307 198.265 17.7613 197.599 17.7613ZM197.599 16.2313C198.063 16.2313 198.438 16.0838 198.724 15.7887C199.011 15.4937 199.154 15.1017 199.154 14.6128V11.8309C199.154 11.342 199.011 10.95 198.724 10.655C198.446 10.3515 198.071 10.1997 197.599 10.1997C197.135 10.1997 196.76 10.3515 196.473 10.655C196.195 10.95 196.056 11.342 196.056 11.8309V14.6128C196.056 15.1017 196.195 15.4937 196.473 15.7887C196.76 16.0838 197.135 16.2313 197.599 16.2313Z" fill="#F0F4F4"/>
<path d="M206.81 17.6222C206.726 17.6222 206.671 17.5801 206.646 17.4958L204.041 8.9479L204.028 8.89732C204.028 8.81303 204.074 8.77088 204.167 8.77088H205.76C205.853 8.77088 205.912 8.81303 205.937 8.89732L207.619 15.068C207.628 15.0933 207.64 15.1059 207.657 15.1059C207.674 15.1059 207.687 15.0933 207.695 15.068L209.352 8.89732C209.377 8.81303 209.436 8.77088 209.529 8.77088H211.084C211.134 8.77088 211.172 8.78774 211.198 8.82146C211.223 8.85517 211.227 8.89732 211.21 8.9479L208.568 17.4958C208.542 17.5801 208.487 17.6222 208.403 17.6222H206.81Z" fill="#F0F4F4"/>
<path d="M219.018 17.6222C218.934 17.6222 218.879 17.5801 218.854 17.4958L218.475 16.2566C218.458 16.2229 218.437 16.206 218.411 16.206H215.301C215.275 16.206 215.254 16.2229 215.237 16.2566L214.871 17.4958C214.845 17.5801 214.791 17.6222 214.706 17.6222H213.1C213.05 17.6222 213.012 17.6096 212.987 17.5843C212.961 17.5506 212.957 17.5042 212.974 17.4452L215.705 8.89732C215.731 8.81303 215.785 8.77088 215.87 8.77088H217.855C217.939 8.77088 217.994 8.81303 218.019 8.89732L220.751 17.4452C220.759 17.4621 220.763 17.4831 220.763 17.5084C220.763 17.5843 220.717 17.6222 220.624 17.6222H219.018ZM215.693 14.7519C215.684 14.8024 215.701 14.8277 215.743 14.8277H217.969C218.019 14.8277 218.036 14.8024 218.019 14.7519L216.881 10.9964C216.873 10.9626 216.86 10.95 216.843 10.9584C216.826 10.9584 216.814 10.9711 216.805 10.9964L215.693 14.7519ZM216.135 7.9869C216.076 7.9869 216.038 7.97004 216.021 7.93632C216.005 7.9026 216.009 7.86045 216.034 7.80987L216.704 6.53275C216.738 6.45688 216.801 6.41895 216.894 6.41895H218.171C218.23 6.41895 218.268 6.44002 218.285 6.48217C218.31 6.51589 218.306 6.55804 218.272 6.60862L217.374 7.88574C217.332 7.95318 217.273 7.9869 217.197 7.9869H216.135Z" fill="#F0F4F4"/>
</svg>
