<svg width="42" height="51" viewBox="0 0 42 51" fill="none" xmlns="http://www.w3.org/2000/svg">
<path d="M21 9.8125C23.1574 9.8125 24.9062 8.06361 24.9062 5.90625C24.9062 3.74889 23.1574 2 21 2C18.8426 2 17.0938 3.74889 17.0938 5.90625C17.0938 8.06361 18.8426 9.8125 21 9.8125Z" stroke="#72D7D1" stroke-width="3.125" stroke-miterlimit="10"/>
<path d="M15.4629 29.3066L12.4941 46.123C12.4408 46.4264 12.4477 46.7372 12.5145 47.0379C12.5814 47.3385 12.7068 47.623 12.8837 47.8751C13.0605 48.1273 13.2853 48.3421 13.5452 48.5073C13.8051 48.6725 14.0951 48.7848 14.3984 48.8379C14.7006 48.8916 15.0105 48.8849 15.3101 48.8181C15.6097 48.7512 15.893 48.6256 16.1437 48.4485C16.3944 48.2714 16.6074 48.0463 16.7705 47.7862C16.9336 47.5262 17.0435 47.2364 17.0938 46.9336L19.1445 35.2246V35.2441C19.1445 35.2441 19.6523 32.0703 20.8535 32.0703H21.1563C22.377 32.0703 22.8652 35.2441 22.8652 35.2441V35.2344L24.916 46.9434C25.0248 47.5533 25.3714 48.0951 25.8796 48.4494C26.3879 48.8038 27.016 48.9418 27.626 48.833C28.2359 48.7242 28.7777 48.3776 29.1321 47.8694C29.4864 47.3612 29.6244 46.733 29.5156 46.123L26.5469 29.3066L26.0684 26.4063C25.7852 24.6387 25.6582 21.7578 26.1172 20.5762C26.5078 19.5605 27.4971 19.1895 28.3828 19.1895H37.4062C38.0279 19.1895 38.624 18.9425 39.0635 18.503C39.5031 18.0634 39.75 17.4673 39.75 16.8457C39.75 16.2241 39.5031 15.628 39.0635 15.1884C38.624 14.7489 38.0279 14.502 37.4062 14.502H4.59375C3.97215 14.502 3.37601 14.7489 2.93647 15.1884C2.49693 15.628 2.25 16.2241 2.25 16.8457C2.25 17.4673 2.49693 18.0634 2.93647 18.503C3.37601 18.9425 3.97215 19.1895 4.59375 19.1895H13.627C14.5283 19.1895 15.502 19.5605 15.8926 20.5762C16.3516 21.7578 16.2246 24.6387 15.9414 26.4063L15.4629 29.3066Z" stroke="#72D7D1" stroke-width="3.125" stroke-miterlimit="10"/>
</svg>
