<svg width="55" height="52" viewBox="0 0 55 52" fill="none" xmlns="http://www.w3.org/2000/svg">
<circle cx="28.4273" cy="43.264" r="1.39091" fill="#72D7D1"/>
<path d="M10.8091 20.5455C15.4455 32.6 15.4455 39.0909 15.4455 50.2182M45.1182 20.5455C41.4091 32.6 40.4818 38.6273 40.4818 50.2182M22.4 2C22.4 2 21.6954 4.5688 20.5455 5.70909C19.0406 7.2013 17.3711 6.67875 15.4455 7.56364C13.1598 8.61392 11.9967 9.44733 9.88182 10.8091C8.02358 12.0056 6.59749 12.3062 5.24545 14.0545C3.41871 16.4168 3.96555 18.5424 3.39091 21.4727C2.27106 27.1833 2.54318 30.5151 2 36.3091M18.2273 26.1091C18.2273 26.1091 24.2545 26.1091 26.5727 24.7182L28.4273 19.1545L29.3545 24.7182C31.6727 26.1091 38.6273 26.1091 38.6273 26.1091" stroke="#72D7D1" stroke-width="3" stroke-linecap="round"/>
<path d="M32.6 2C32.6 2 33.3046 4.5688 34.4545 5.70909C35.9594 7.2013 37.6289 6.67875 39.5545 7.56364C41.8402 8.61392 43.0033 9.44733 45.1182 10.8091C46.9764 12.0056 48.4025 12.3062 49.7545 14.0545C51.5813 16.4168 51.0345 18.5424 51.6091 21.4727C52.7289 27.1833 52.4568 30.5151 53 36.3091" stroke="#72D7D1" stroke-width="3" stroke-linecap="round"/>
</svg>
