<svg width="43" height="43" viewBox="0 0 43 43" fill="none" xmlns="http://www.w3.org/2000/svg">
<path d="M16.5385 18.0385H18.0385V16.5385V3.30769C18.0385 2.65626 18.2491 2.22995 18.5088 1.97028C18.7685 1.7106 19.1948 1.5 19.8462 1.5H23.1539C23.8053 1.5 24.2316 1.7106 24.4913 1.97028C24.751 2.22995 24.9616 2.65626 24.9616 3.30769V16.5385V18.0385H26.4616H39.6924C40.3438 18.0385 40.7701 18.2491 41.0298 18.5087C41.2895 18.7684 41.5001 19.1947 41.5001 19.8462V23.1538C41.5001 23.8053 41.2895 24.2316 41.0298 24.4913C40.7701 24.7509 40.3438 24.9615 39.6924 24.9615H26.4616H24.9616V26.4615V39.6923C24.9616 40.3437 24.751 40.77 24.4913 41.0297C24.2316 41.2894 23.8053 41.5 23.1539 41.5H19.8462C19.1948 41.5 18.7685 41.2894 18.5088 41.0297C18.2491 40.77 18.0385 40.3437 18.0385 39.6923V26.4615V24.9615H16.5385H3.30775C2.65632 24.9615 2.23001 24.7509 1.97034 24.4913C1.71066 24.2316 1.50006 23.8053 1.50006 23.1538V19.8462C1.50006 19.1947 1.71066 18.7684 1.97034 18.5087C2.23001 18.2491 2.65632 18.0385 3.30775 18.0385H16.5385Z" stroke="#72D7D1" stroke-width="3"/>
</svg>
