<svg width="30" height="46" viewBox="0 0 30 46" fill="none" xmlns="http://www.w3.org/2000/svg">
<path d="M20.4131 30.0095C14.1178 26.6697 4.94307 26.3473 2.41312 33.0095C-0.475957 40.6174 12.4564 45.2177 20.4131 43.5095C23.6586 42.8128 26.5822 42.5505 27.9131 39.5095C29.8083 35.1793 24.5887 32.2248 20.4131 30.0095ZM5.91315 20.0096C6.71996 23.2355 8.53079 24.8516 11.4131 26.5096C15.6446 28.9437 20.7734 30.2475 23.9131 26.5096C26.1877 23.8018 26.1811 20.8109 24.9131 17.5096C22.2298 10.5233 4.09728 12.7494 5.91315 20.0096ZM15.4131 2.00958C15.4131 2.00958 9.89034 2.34069 8.41315 7.00974C6.45524 13.1982 10.9255 11.7118 17.4131 11.5102C21.2026 11.3925 23.9131 12.3011 23.9131 8.50977C23.9131 2.50977 21.6148 1.91007 15.4131 2.00958Z" stroke="#72D7D1" stroke-width="3"/>
</svg>
