<svg width="33" height="33" viewBox="0 0 33 33" fill="none" xmlns="http://www.w3.org/2000/svg">
<path d="M16.39 0.661133C7.64169 0.661133 0.549988 7.75283 0.549988 16.5011C0.549988 25.2494 7.64169 32.3411 16.39 32.3411C25.1383 32.3411 32.23 25.2494 32.23 16.5011C32.23 7.75283 25.1383 0.661133 16.39 0.661133ZM20.1421 11.6072H17.7611C17.479 11.6072 17.1655 11.9785 17.1655 12.4718V14.1911H20.1437L19.6933 16.643H17.1655V24.0037H14.3555V16.643H11.8063V14.1911H14.3555V12.749C14.3555 10.6799 15.791 8.99858 17.7611 8.99858H20.1421V11.6072Z" fill="url(#paint0_linear_306_59)"/>
<defs>
<linearGradient id="paint0_linear_306_59" x1="16.39" y1="15.4011" x2="33.5162" y2="10.6112" gradientUnits="userSpaceOnUse">
<stop stop-color="#4AC8C1"/>
<stop offset="1" stop-color="#59D6B7"/>
</linearGradient>
</defs>
</svg>
