<svg width="32" height="33" viewBox="0 0 32 33" fill="none" xmlns="http://www.w3.org/2000/svg">
<path d="M20.79 16.5011C20.79 17.814 20.2685 19.073 19.3402 20.0013C18.4119 20.9296 17.1528 21.4511 15.84 21.4511C14.5272 21.4511 13.2681 20.9296 12.3398 20.0013C11.4115 19.073 10.89 17.814 10.89 16.5011C10.89 16.219 10.9197 15.9434 10.9708 15.6761H9.24V22.2712C9.24 22.7299 9.61125 23.1011 10.07 23.1011H21.6117C21.8315 23.1007 22.0422 23.0131 22.1975 22.8575C22.3528 22.7019 22.44 22.491 22.44 22.2712V15.6761H20.7092C20.7603 15.9434 20.79 16.219 20.79 16.5011ZM15.84 19.8011C16.2735 19.801 16.7027 19.7155 17.1031 19.5496C17.5035 19.3836 17.8674 19.1403 18.1738 18.8338C18.4802 18.5272 18.7233 18.1632 18.8891 17.7627C19.0548 17.3622 19.1401 16.933 19.14 16.4995C19.1399 16.066 19.0544 15.6368 18.8884 15.2364C18.7224 14.8359 18.4792 14.4721 18.1726 14.1657C17.866 13.8593 17.5021 13.6162 17.1016 13.4504C16.7011 13.2846 16.2718 13.1994 15.8384 13.1995C14.9629 13.1997 14.1234 13.5477 13.5046 14.1669C12.8857 14.786 12.5381 15.6257 12.5384 16.5011C12.5386 17.3766 12.8865 18.2161 13.5057 18.8349C14.1249 19.4538 14.9646 19.8014 15.84 19.8011ZM19.8 13.0361H21.7784C21.9098 13.0361 22.0359 12.984 22.129 12.8913C22.222 12.7985 22.2746 12.6726 22.275 12.5411V10.5628C22.275 10.4311 22.2227 10.3047 22.1295 10.2116C22.0364 10.1185 21.9101 10.0661 21.7784 10.0661H19.8C19.6683 10.0661 19.542 10.1185 19.4488 10.2116C19.3557 10.3047 19.3034 10.4311 19.3034 10.5628V12.5411C19.305 12.8134 19.5278 13.0361 19.8 13.0361ZM15.84 0.661133C11.639 0.661133 7.61 2.32999 4.63943 5.30056C1.66885 8.27114 0 12.3001 0 16.5011C0 20.7022 1.66885 24.7311 4.63943 27.7017C7.61 30.6723 11.639 32.3411 15.84 32.3411C17.9201 32.3411 19.9799 31.9314 21.9017 31.1354C23.8235 30.3394 25.5697 29.1726 27.0406 27.7017C28.5115 26.2308 29.6782 24.4846 30.4743 22.5628C31.2703 20.641 31.68 18.5813 31.68 16.5011C31.68 14.421 31.2703 12.3612 30.4743 10.4394C29.6782 8.51763 28.5115 6.77144 27.0406 5.30056C25.5697 3.82968 23.8235 2.66292 21.9017 1.86688C19.9799 1.07085 17.9201 0.661133 15.84 0.661133ZM24.09 22.918C24.09 23.9261 23.265 24.7511 22.2569 24.7511H9.42315C8.415 24.7511 7.59 23.9261 7.59 22.918V10.0843C7.59 9.07613 8.415 8.25113 9.42315 8.25113H22.2569C23.265 8.25113 24.09 9.07613 24.09 10.0843V22.918Z" fill="url(#paint0_linear_306_57)"/>
<defs>
<linearGradient id="paint0_linear_306_57" x1="15.84" y1="15.4011" x2="32.9663" y2="10.6112" gradientUnits="userSpaceOnUse">
<stop stop-color="#4AC8C1"/>
<stop offset="1" stop-color="#59D6B7"/>
</linearGradient>
</defs>
</svg>
