<svg width="46" height="41" viewBox="0 0 46 41" fill="none" xmlns="http://www.w3.org/2000/svg">
<path fill-rule="evenodd" clip-rule="evenodd" d="M30.3442 2.39708C29.3129 0.527954 27.4607 -0.0251847 25.7233 0.00087089C24.0249 0.0263432 22.1739 0.587259 20.5503 1.24197C18.9001 1.90739 17.3541 2.72422 16.2303 3.36715C15.8601 3.57897 15.533 3.77345 15.26 3.93954L10.8115 0.603148C10.1488 0.106092 9.20855 0.240407 8.7115 0.903149C8.21444 1.56589 8.34876 2.50609 9.0115 3.00315L14.2858 6.95889L15.1348 7.59561L16.0173 7.00734L16.0174 7.00726L16.0178 7.00702L16.0178 7.007L16.0219 7.00432L16.0417 6.99123C16.0601 6.97913 16.0887 6.96041 16.127 6.93567C16.2035 6.88617 16.3184 6.81262 16.4668 6.7198C16.764 6.53402 17.1944 6.27184 17.7201 5.97112C18.7767 5.36659 20.1935 4.62054 21.6722 4.02428C23.1775 3.4173 24.6215 3.01773 25.7683 3.00053C26.8762 2.98392 27.4194 3.30592 27.7176 3.84638C29.3676 6.83691 27.8217 10.9026 24.4988 12.2855C23.792 12.5797 22.6284 12.619 21.4428 12.5105C20.8877 12.4597 20.3903 12.3831 20.0318 12.319C19.8533 12.2871 19.7114 12.2587 19.6163 12.2387C19.5688 12.2288 19.5332 12.221 19.5107 12.216L19.487 12.2107L19.4842 12.21L19.4838 12.2099L19.4834 12.2098L19.483 12.2097L19.4829 12.2097L17.6952 11.7902L17.6422 13.626L17.6422 13.6264V13.6264L17.6422 13.6267L17.6422 13.627L17.642 13.6312L17.6411 13.6568C17.6402 13.6807 17.6386 13.7182 17.6362 13.7678C17.6313 13.8671 17.6229 14.0145 17.6093 14.1992C17.5818 14.5697 17.5334 15.0835 17.4503 15.6543C17.2755 16.8536 16.9761 18.0874 16.5311 18.8417C15.3997 20.7594 13.2771 22.5706 11.1516 23.4078C9.01228 24.2504 7.42647 23.9593 6.51653 22.6871C6.22327 22.2771 6.07088 21.6565 6.13499 20.7714C6.19858 19.8934 6.46607 18.9079 6.82982 17.9427C7.18965 16.988 7.61988 16.115 7.96383 15.4762C8.13482 15.1586 8.28212 14.9033 8.38517 14.7297C8.43664 14.643 8.47691 14.577 8.50338 14.5341L8.53236 14.4875L8.53845 14.4779L8.53859 14.4776L8.53891 14.4771L8.53913 14.4768L8.53928 14.4765L9.23261 13.3907L8.26209 12.5415L2.98778 7.92647C2.36432 7.38095 1.41668 7.44412 0.871156 8.06758C0.325632 8.69103 0.388809 9.63868 1.01226 10.1842L5.35848 13.9871L5.32236 14.054C4.93746 14.7689 4.44362 15.7676 4.02258 16.8847C3.60546 17.9915 3.23528 19.2781 3.14283 20.5547C3.05088 21.8241 3.22406 23.2406 4.07641 24.4323C6.15084 27.3327 9.52486 27.2729 12.251 26.1991C14.9909 25.1199 17.6395 22.8669 19.1149 20.3662C19.8761 19.0761 20.2359 17.3431 20.4189 16.0867C20.4525 15.8562 20.4811 15.6343 20.5054 15.4252C20.7148 15.4519 20.9374 15.4768 21.1694 15.498C22.4158 15.6121 24.219 15.6514 25.6515 15.0552C30.4524 13.0572 32.9451 7.11087 30.3442 2.39708ZM16.0479 37.6702C17.0792 39.5394 18.9315 40.0925 20.6688 40.0664C22.3672 40.041 24.2182 39.48 25.8419 38.8253C27.4921 38.1599 29.038 37.3431 30.1618 36.7002C30.5321 36.4883 30.8592 36.2939 31.1321 36.1278L35.5806 39.4642C36.2434 39.9612 37.1836 39.8269 37.6806 39.1642C38.1777 38.5014 38.0434 37.5612 37.3806 37.0642L32.1063 33.1084L31.2574 32.4717L30.3748 33.06L30.3747 33.06L30.3744 33.0603L30.3743 33.0603L30.3703 33.063L30.3504 33.0761C30.332 33.0882 30.3034 33.1069 30.2652 33.1316C30.1887 33.1811 30.0738 33.2547 29.9253 33.3475C29.6281 33.5333 29.1977 33.7955 28.6721 34.0962C27.6154 34.7007 26.1986 35.4468 24.7199 36.043C23.2147 36.65 21.7706 37.0496 20.6238 37.0668C19.5159 37.0834 18.9728 36.7614 18.6746 36.2209C17.0245 33.2304 18.5704 29.1647 21.8933 27.7818C22.6001 27.4876 23.7638 27.4483 24.9493 27.5568C25.5044 27.6076 26.0018 27.6842 26.3604 27.7483C26.5388 27.7802 26.6808 27.8087 26.7759 27.8286C26.8233 27.8385 26.859 27.8463 26.8815 27.8513L26.9051 27.8566L26.9079 27.8573L26.9084 27.8574L26.9087 27.8575L26.9092 27.8576L26.9092 27.8576L28.6969 28.2771L28.7499 26.4413L28.7499 26.4409V26.4409L28.7499 26.4406L28.75 26.4403L28.7501 26.4361L28.751 26.4106C28.752 26.3866 28.7535 26.3491 28.756 26.2995C28.7608 26.2002 28.7692 26.0528 28.7829 25.8681C28.8103 25.4976 28.8587 24.9839 28.9419 24.413C29.1166 23.2137 29.416 21.9799 29.8611 21.2256C30.9925 19.3079 33.115 17.4967 35.2406 16.6595C37.3799 15.8169 38.9657 16.108 39.8756 17.3802C40.1689 17.7902 40.3213 18.4108 40.2571 19.2959C40.1936 20.1739 39.9261 21.1594 39.5623 22.1246C39.2025 23.0793 38.7723 23.9523 38.4283 24.5911C38.2573 24.9087 38.11 25.1641 38.007 25.3376C37.9555 25.4243 37.9152 25.4903 37.8888 25.5332L37.8598 25.5798L37.8537 25.5895L37.8535 25.5897L37.8532 25.5902L37.853 25.5905L37.8529 25.5908L37.1595 26.6766L38.13 27.5258L43.4044 32.1408C44.0278 32.6864 44.9755 32.6232 45.521 31.9997C46.0665 31.3763 46.0033 30.4286 45.3799 29.8831L41.0337 26.0802L41.0698 26.0133C41.4547 25.2984 41.9485 24.2997 42.3696 23.1826C42.7867 22.0758 43.1569 20.7892 43.2493 19.5126C43.3413 18.2432 43.1681 16.8267 42.3157 15.635C40.2413 12.7346 36.8673 12.7944 34.1411 13.8682C31.4012 14.9474 28.7527 17.2004 27.2773 19.7011C26.5161 20.9912 26.1562 22.7242 25.9732 23.9806C25.9396 24.2111 25.911 24.433 25.8867 24.6421C25.6773 24.6154 25.4547 24.5905 25.2228 24.5693C23.9763 24.4552 22.1731 24.4159 20.7406 25.0121C15.9398 27.0101 13.447 32.9564 16.0479 37.6702Z" fill="#72D7D1"/>
</svg>
