<svg width="34" height="33" viewBox="0 0 34 33" fill="none" xmlns="http://www.w3.org/2000/svg">
<path fill-rule="evenodd" clip-rule="evenodd" d="M16.59 33C25.7027 33 33.09 25.6127 33.09 16.5C33.09 7.3873 25.7027 0 16.59 0C7.47733 0 0.0900269 7.3873 0.0900269 16.5C0.0900269 25.6127 7.47733 33 16.59 33ZM20.4712 13.7498C21.6248 14.5756 23.0088 15.0181 24.4276 15.0147V12.1987C23.6598 12.1989 22.9089 11.9732 22.2684 11.5497C21.8182 11.2596 21.432 10.8807 21.1333 10.4362C20.8345 9.99165 20.6296 9.49088 20.5311 8.96446C20.4892 8.72865 20.4692 8.48949 20.4712 8.25H17.6352V19.5093C17.6352 20.0162 17.4751 20.5101 17.1776 20.9205C16.8802 21.3309 16.4607 21.6369 15.979 21.7947C15.4973 21.9524 14.9781 21.954 14.4955 21.799C14.0129 21.6441 13.5915 21.3407 13.2917 20.932C12.9918 20.5233 12.8287 20.0304 12.8258 19.5235C12.8228 19.0167 12.98 18.5218 13.2751 18.1097C13.5701 17.6975 13.9878 17.3891 14.4685 17.2285C14.9493 17.0679 15.4685 17.0633 15.952 17.2154V14.3186C14.8954 14.1721 13.8192 14.3517 12.8674 14.8334C11.9156 15.315 11.1336 16.0758 10.6258 17.0139C10.1181 17.952 9.9088 19.0228 10.026 20.0831C10.1433 21.1433 10.5814 22.1426 11.2818 22.9471C11.9823 23.7516 12.9117 24.3232 13.9457 24.5852C14.9797 24.8473 16.0691 24.7875 17.0682 24.4137C18.0673 24.04 18.9285 23.3701 19.5366 22.4937C20.1447 21.6172 20.4708 20.576 20.4712 19.5093V13.7498Z" fill="url(#paint0_linear_306_63)"/>
<defs>
<linearGradient id="paint0_linear_306_63" x1="16.59" y1="15.3542" x2="34.4299" y2="10.3646" gradientUnits="userSpaceOnUse">
<stop stop-color="#4AC8C1"/>
<stop offset="1" stop-color="#59D6B7"/>
</linearGradient>
</defs>
</svg>
