<svg width="192" height="45" viewBox="0 0 192 45" fill="none" xmlns="http://www.w3.org/2000/svg">
<path fill-rule="evenodd" clip-rule="evenodd" d="M0.292546 5.10008C0.292857 5.10006 0.293263 5.10004 0.154122 2.62067C0.014981 0.141297 0.0155781 0.141264 0.0162704 0.141225L0.0235769 0.140824L0.0412587 0.139876L0.103314 0.136713C0.156353 0.134091 0.232504 0.13051 0.330228 0.126377C0.52564 0.118114 0.80754 0.107633 1.16362 0.0982029C1.87532 0.0793542 2.8859 0.0646321 4.09644 0.0804054C6.50731 0.111819 9.75769 0.264639 13.0376 0.760979C16.2728 1.25057 19.7536 2.10462 22.4915 3.6549C25.2784 5.23294 27.6611 7.77836 27.6611 11.5986C27.6611 13.9352 26.4035 16.0851 25.0641 17.774C23.6695 19.5323 21.8676 21.1845 20.1525 22.5764C18.4235 23.9797 16.706 25.1799 15.4274 26.0261C15.0777 26.2575 14.7594 26.4635 14.4807 26.641V33.7426L30.2835 20.1157C35.6545 15.4845 40.4953 11.3109 42.345 9.7173L45.5867 13.48C43.9837 14.8611 40.1317 18.182 35.6343 22.0598C39.9572 26.3776 42.5823 31.1808 44.153 35.0591C45.0613 37.3018 45.6252 39.2546 45.9639 40.659C46.1334 41.3619 46.2471 41.9299 46.3196 42.3308C46.3559 42.5314 46.3818 42.6904 46.3994 42.804C46.4081 42.8607 46.4148 42.9062 46.4195 42.9397L46.4253 42.9812L46.4272 42.9951L46.4282 43.0025C46.4283 43.0035 46.4284 43.0045 43.9659 43.3247C41.5033 43.6449 41.5034 43.6457 41.5035 43.6465L41.5023 43.6376C41.5003 43.6236 41.4966 43.598 41.4909 43.5615C41.4796 43.4883 41.4607 43.3713 41.4323 43.2142C41.3754 42.8998 41.2811 42.426 41.1358 41.8234C40.8447 40.6165 40.3513 38.9027 39.5497 36.9235C38.1245 33.4046 35.7504 29.108 31.8607 25.3136L13.6206 41.0424L13.6195 41.0434C13.6195 41.0434 13.6192 41.0437 11.9974 39.1631L13.6195 41.0434L9.51415 44.5837V23.8348L10.7396 23.1155L10.7443 23.1127L10.7667 23.0994C10.7877 23.087 10.8207 23.0673 10.8648 23.0407C10.953 22.9876 11.0858 22.907 11.2567 22.8012C11.5987 22.5895 12.0922 22.2777 12.6863 21.8845C13.879 21.0951 15.4566 19.9912 17.0228 18.7201C18.6028 17.4378 20.096 16.0455 21.1728 14.6878C22.3046 13.2607 22.6946 12.2229 22.6946 11.5986C22.6946 10.2278 21.9494 9.05539 20.0443 7.97671C18.0903 6.87028 15.3151 6.12872 12.2944 5.67161C9.31836 5.22124 6.3128 5.07625 4.03173 5.04653C2.89629 5.03173 1.95189 5.04561 1.2951 5.063C0.966939 5.0717 0.71122 5.08125 0.540073 5.08848C0.454518 5.0921 0.390154 5.09514 0.348499 5.0972L0.30326 5.0995L0.293784 5.10001L0.292546 5.10008ZM41.504 43.6501C41.5041 43.6507 41.5041 43.6509 41.504 43.6501V43.6501Z" fill="url(#paint0_linear_208_104)"/>
<path d="M76.9222 26.1775C76.9222 26.2442 76.8955 26.3042 76.8422 26.3575C76.8022 26.3976 76.7488 26.4176 76.6821 26.4176H70.1408C70.0742 26.4176 70.0408 26.4509 70.0408 26.5176V29.6182C70.0408 29.6849 70.0742 29.7182 70.1408 29.7182H74.4417C74.5084 29.7182 74.5617 29.7449 74.6017 29.7982C74.6551 29.8382 74.6817 29.8916 74.6817 29.9583V31.8987C74.6817 31.9653 74.6551 32.0254 74.6017 32.0787C74.5617 32.1187 74.5084 32.1387 74.4417 32.1387H70.1408C70.0742 32.1387 70.0408 32.172 70.0408 32.2387V37.7598C70.0408 37.8265 70.0141 37.8865 69.9608 37.9399C69.9208 37.9799 69.8674 37.9999 69.8008 37.9999H67.4603C67.3936 37.9999 67.3336 37.9799 67.2803 37.9399C67.2402 37.8865 67.2202 37.8265 67.2202 37.7598V24.2371C67.2202 24.1704 67.2402 24.1171 67.2803 24.0771C67.3336 24.0237 67.3936 23.9971 67.4603 23.9971H76.6821C76.7488 23.9971 76.8022 24.0237 76.8422 24.0771C76.8955 24.1171 76.9222 24.1704 76.9222 24.2371V26.1775Z" fill="url(#paint1_linear_208_104)"/>
<path d="M82.3547 37.9999C82.288 37.9999 82.228 37.9799 82.1747 37.9399C82.1346 37.8865 82.1146 37.8265 82.1146 37.7598V24.2371C82.1146 24.1704 82.1346 24.1171 82.1747 24.0771C82.228 24.0237 82.288 23.9971 82.3547 23.9971H84.6952C84.7618 23.9971 84.8152 24.0237 84.8552 24.0771C84.9085 24.1171 84.9352 24.1704 84.9352 24.2371V37.7598C84.9352 37.8265 84.9085 37.8865 84.8552 37.9399C84.8152 37.9799 84.7618 37.9999 84.6952 37.9999H82.3547Z" fill="url(#paint2_linear_208_104)"/>
<path d="M100.732 23.9971C100.799 23.9971 100.852 24.0237 100.892 24.0771C100.946 24.1171 100.972 24.1704 100.972 24.2371V26.1975C100.972 26.2642 100.946 26.3242 100.892 26.3775C100.852 26.4176 100.799 26.4376 100.732 26.4376H97.1516C97.0849 26.4376 97.0515 26.4709 97.0515 26.5376V37.7598C97.0515 37.8265 97.0249 37.8865 96.9715 37.9399C96.9315 37.9799 96.8782 37.9999 96.8115 37.9999H94.471C94.4044 37.9999 94.3443 37.9799 94.291 37.9399C94.251 37.8865 94.231 37.8265 94.231 37.7598V26.5376C94.231 26.4709 94.1976 26.4376 94.131 26.4376H90.6503C90.5836 26.4376 90.5236 26.4176 90.4702 26.3775C90.4302 26.3242 90.4102 26.2642 90.4102 26.1975V24.2371C90.4102 24.1704 90.4302 24.1171 90.4702 24.0771C90.5236 24.0237 90.5836 23.9971 90.6503 23.9971H100.732Z" fill="url(#paint3_linear_208_104)"/>
<path d="M69.8299 7.32907C70.3114 7.32907 70.7345 7.42755 71.0993 7.62452C71.464 7.82149 71.7449 8.10235 71.9418 8.4671C72.1461 8.82456 72.2482 9.23673 72.2482 9.70361C72.2482 10.1632 72.1425 10.5681 71.9309 10.9182C71.7266 11.2684 71.4348 11.542 71.0555 11.7389C70.6834 11.9286 70.253 12.0234 69.7643 12.0234H68.2104C68.1739 12.0234 68.1557 12.0417 68.1557 12.0782V14.8685C68.1557 14.905 68.1411 14.9378 68.1119 14.967C68.09 14.9889 68.0609 14.9998 68.0244 14.9998H66.7441C66.7076 14.9998 66.6748 14.9889 66.6456 14.967C66.6237 14.9378 66.6128 14.905 66.6128 14.8685V7.46038C66.6128 7.42391 66.6237 7.39473 66.6456 7.37284C66.6748 7.34366 66.7076 7.32907 66.7441 7.32907H69.8299ZM69.6001 10.7869C69.9357 10.7869 70.2056 10.6921 70.4099 10.5024C70.6141 10.3055 70.7163 10.0501 70.7163 9.73644C70.7163 9.41546 70.6141 9.15648 70.4099 8.95952C70.2056 8.76255 69.9357 8.66407 69.6001 8.66407H68.2104C68.1739 8.66407 68.1557 8.6823 68.1557 8.71878V10.7322C68.1557 10.7687 68.1739 10.7869 68.2104 10.7869H69.6001Z" fill="#107974"/>
<path d="M80.5392 8.53276C80.5392 8.56923 80.5246 8.60206 80.4955 8.63124C80.4736 8.65312 80.4444 8.66407 80.4079 8.66407H76.8187C76.7823 8.66407 76.764 8.6823 76.764 8.71878V10.4149C76.764 10.4514 76.7823 10.4696 76.8187 10.4696H79.1714C79.2079 10.4696 79.2371 10.4842 79.2589 10.5134C79.2881 10.5353 79.3027 10.5644 79.3027 10.6009V11.6623C79.3027 11.6988 79.2881 11.7316 79.2589 11.7608C79.2371 11.7827 79.2079 11.7937 79.1714 11.7937H76.8187C76.7823 11.7937 76.764 11.8119 76.764 11.8484V13.6211C76.764 13.6575 76.7823 13.6758 76.8187 13.6758H80.4079C80.4444 13.6758 80.4736 13.6904 80.4955 13.7196C80.5246 13.7414 80.5392 13.7706 80.5392 13.8071V14.8685C80.5392 14.905 80.5246 14.9378 80.4955 14.967C80.4736 14.9889 80.4444 14.9998 80.4079 14.9998H75.3524C75.316 14.9998 75.2831 14.9889 75.2539 14.967C75.2321 14.9378 75.2211 14.905 75.2211 14.8685V7.47132C75.2211 7.43485 75.2321 7.40567 75.2539 7.38378C75.2831 7.3546 75.316 7.34001 75.3524 7.34001H80.4079C80.4444 7.34001 80.4736 7.3546 80.4955 7.38378C80.5246 7.40567 80.5392 7.43485 80.5392 7.47132V8.53276Z" fill="#107974"/>
<path d="M88.9211 7.34001C88.9576 7.34001 88.9867 7.3546 89.0086 7.38378C89.0378 7.40567 89.0524 7.43485 89.0524 7.47132V8.5437C89.0524 8.58017 89.0378 8.613 89.0086 8.64218C88.9867 8.66407 88.9576 8.67501 88.9211 8.67501H86.9624C86.9259 8.67501 86.9076 8.69325 86.9076 8.72972V14.8685C86.9076 14.905 86.8931 14.9378 86.8639 14.967C86.842 14.9889 86.8128 14.9998 86.7763 14.9998H85.4961C85.4596 14.9998 85.4268 14.9889 85.3976 14.967C85.3757 14.9378 85.3647 14.905 85.3647 14.8685V8.72972C85.3647 8.69325 85.3465 8.67501 85.31 8.67501H83.406C83.3695 8.67501 83.3367 8.66407 83.3075 8.64218C83.2856 8.613 83.2747 8.58017 83.2747 8.5437V7.47132C83.2747 7.43485 83.2856 7.40567 83.3075 7.38378C83.3367 7.3546 83.3695 7.34001 83.406 7.34001H88.9211Z" fill="#107974"/>
<path d="M96.2631 14.9998C96.1902 14.9998 96.1391 14.967 96.11 14.9014L94.7421 11.8703C94.7275 11.8411 94.7057 11.8265 94.6765 11.8265H93.6588C93.6223 11.8265 93.6041 11.8447 93.6041 11.8812V14.8685C93.6041 14.905 93.5895 14.9378 93.5603 14.967C93.5384 14.9889 93.5093 14.9998 93.4728 14.9998H92.1925C92.156 14.9998 92.1232 14.9889 92.094 14.967C92.0721 14.9378 92.0612 14.905 92.0612 14.8685V7.47132C92.0612 7.43485 92.0721 7.40567 92.094 7.38378C92.1232 7.3546 92.156 7.34001 92.1925 7.34001H95.3221C95.789 7.34001 96.1975 7.43485 96.5477 7.62452C96.9051 7.81419 97.1787 8.08411 97.3684 8.43427C97.5653 8.78444 97.6638 9.18931 97.6638 9.6489C97.6638 10.145 97.5398 10.5717 97.2918 10.9292C97.0437 11.2794 96.6972 11.5274 96.2522 11.6733C96.2157 11.6879 96.2048 11.7134 96.2194 11.7499L97.7076 14.8466C97.7222 14.8758 97.7295 14.8977 97.7295 14.9123C97.7295 14.9707 97.6893 14.9998 97.6091 14.9998H96.2631ZM93.6588 8.66407C93.6223 8.66407 93.6041 8.6823 93.6041 8.71878V10.59C93.6041 10.6264 93.6223 10.6447 93.6588 10.6447H95.0923C95.3987 10.6447 95.6467 10.5535 95.8364 10.3711C96.0334 10.1887 96.1318 9.95165 96.1318 9.65984C96.1318 9.36804 96.0334 9.13095 95.8364 8.94858C95.6467 8.7589 95.3987 8.66407 95.0923 8.66407H93.6588Z" fill="#107974"/>
<path d="M105.837 14.9998C105.764 14.9998 105.717 14.9634 105.695 14.8904L105.366 13.818C105.352 13.7889 105.334 13.7743 105.312 13.7743H102.62C102.598 13.7743 102.58 13.7889 102.565 13.818L102.248 14.8904C102.226 14.9634 102.178 14.9998 102.105 14.9998H100.716C100.672 14.9998 100.639 14.9889 100.617 14.967C100.595 14.9378 100.592 14.8977 100.606 14.8466L102.97 7.44944C102.992 7.37649 103.039 7.34001 103.112 7.34001H104.83C104.903 7.34001 104.951 7.37649 104.972 7.44944L107.336 14.8466C107.343 14.8612 107.347 14.8795 107.347 14.9014C107.347 14.967 107.307 14.9998 107.227 14.9998H105.837ZM102.959 12.5159C102.952 12.5596 102.966 12.5815 103.003 12.5815H104.929C104.972 12.5815 104.987 12.5596 104.972 12.5159L103.988 9.26591C103.98 9.23673 103.969 9.22579 103.955 9.23308C103.94 9.23308 103.929 9.24403 103.922 9.26591L102.959 12.5159Z" fill="#107974"/>
<path d="M114.68 14.9998C114.643 14.9998 114.61 14.9889 114.581 14.967C114.559 14.9378 114.548 14.905 114.548 14.8685V7.47132C114.548 7.43485 114.559 7.40567 114.581 7.38378C114.61 7.3546 114.643 7.34001 114.68 7.34001H115.96C115.996 7.34001 116.025 7.3546 116.047 7.38378C116.077 7.40567 116.091 7.43485 116.091 7.47132V10.5353C116.091 10.5571 116.098 10.5717 116.113 10.579C116.128 10.579 116.142 10.5717 116.157 10.5571L118.685 7.41661C118.728 7.36554 118.783 7.34001 118.849 7.34001H120.293C120.351 7.34001 120.388 7.35825 120.403 7.39472C120.417 7.42391 120.41 7.46038 120.381 7.50415L117.94 10.6228C117.919 10.652 117.915 10.6775 117.93 10.6994L120.512 14.8466C120.527 14.8904 120.534 14.9159 120.534 14.9232C120.534 14.9743 120.497 14.9998 120.424 14.9998H118.98C118.907 14.9998 118.856 14.9707 118.827 14.9123L116.879 11.7608C116.872 11.7462 116.861 11.7389 116.846 11.7389C116.832 11.7389 116.817 11.7462 116.802 11.7608L116.113 12.6253C116.098 12.6545 116.091 12.6764 116.091 12.6909V14.8685C116.091 14.905 116.077 14.9378 116.047 14.967C116.025 14.9889 115.996 14.9998 115.96 14.9998H114.68Z" fill="#107974"/>
<path d="M125.827 15.1202C125.258 15.1202 124.754 15.0035 124.316 14.77C123.886 14.5366 123.551 14.212 123.31 13.7961C123.069 13.373 122.949 12.8879 122.949 12.3408V9.99907C122.949 9.45923 123.069 8.9814 123.31 8.56558C123.551 8.14977 123.886 7.82878 124.316 7.60263C124.754 7.36919 125.258 7.25247 125.827 7.25247C126.403 7.25247 126.906 7.36919 127.337 7.60263C127.774 7.82878 128.114 8.14977 128.354 8.56558C128.595 8.9814 128.715 9.45923 128.715 9.99907V12.3408C128.715 12.8879 128.595 13.373 128.354 13.7961C128.114 14.2193 127.774 14.5475 127.337 14.781C126.906 15.0071 126.403 15.1202 125.827 15.1202ZM125.827 13.7961C126.228 13.7961 126.552 13.6685 126.8 13.4132C127.048 13.1578 127.173 12.8186 127.173 12.3955V9.98812C127.173 9.56501 127.048 9.22579 126.8 8.97046C126.56 8.70784 126.235 8.57653 125.827 8.57653C125.425 8.57653 125.101 8.70784 124.853 8.97046C124.612 9.22579 124.492 9.56501 124.492 9.98812V12.3955C124.492 12.8186 124.612 13.1578 124.853 13.4132C125.101 13.6685 125.425 13.7961 125.827 13.7961Z" fill="#107974"/>
<path d="M136.322 7.47132C136.322 7.43485 136.332 7.40567 136.354 7.38378C136.384 7.3546 136.416 7.34001 136.453 7.34001H137.733C137.77 7.34001 137.799 7.3546 137.821 7.38378C137.85 7.40567 137.864 7.43485 137.864 7.47132V14.8685C137.864 14.905 137.85 14.9378 137.821 14.967C137.799 14.9889 137.77 14.9998 137.733 14.9998H136.497C136.424 14.9998 136.373 14.9707 136.343 14.9123L133.509 10.2289C133.495 10.207 133.48 10.1997 133.466 10.207C133.451 10.207 133.444 10.2216 133.444 10.2507L133.466 14.8685C133.466 14.905 133.451 14.9378 133.422 14.967C133.4 14.9889 133.371 14.9998 133.334 14.9998H132.054C132.017 14.9998 131.985 14.9889 131.955 14.967C131.934 14.9378 131.923 14.905 131.923 14.8685V7.47132C131.923 7.43485 131.934 7.40567 131.955 7.38378C131.985 7.3546 132.017 7.34001 132.054 7.34001H133.29C133.363 7.34001 133.414 7.36919 133.444 7.42755L136.267 12.0891C136.281 12.111 136.296 12.1219 136.311 12.1219C136.325 12.1146 136.332 12.0964 136.332 12.0672L136.322 7.47132Z" fill="#107974"/>
<path d="M145.426 14.9998C145.353 14.9998 145.302 14.967 145.273 14.9014L143.905 11.8703C143.891 11.8411 143.869 11.8265 143.84 11.8265H142.822C142.785 11.8265 142.767 11.8447 142.767 11.8812V14.8685C142.767 14.905 142.753 14.9378 142.723 14.967C142.702 14.9889 142.672 14.9998 142.636 14.9998H141.356C141.319 14.9998 141.286 14.9889 141.257 14.967C141.235 14.9378 141.224 14.905 141.224 14.8685V7.47132C141.224 7.43485 141.235 7.40567 141.257 7.38378C141.286 7.3546 141.319 7.34001 141.356 7.34001H144.485C144.952 7.34001 145.361 7.43485 145.711 7.62452C146.068 7.81419 146.342 8.08411 146.531 8.43427C146.728 8.78444 146.827 9.18931 146.827 9.6489C146.827 10.145 146.703 10.5717 146.455 10.9292C146.207 11.2794 145.86 11.5274 145.415 11.6733C145.379 11.6879 145.368 11.7134 145.382 11.7499L146.871 14.8466C146.885 14.8758 146.893 14.8977 146.893 14.9123C146.893 14.9707 146.852 14.9998 146.772 14.9998H145.426ZM142.822 8.66407C142.785 8.66407 142.767 8.6823 142.767 8.71878V10.59C142.767 10.6264 142.785 10.6447 142.822 10.6447H144.255C144.562 10.6447 144.81 10.5535 144.999 10.3711C145.196 10.1887 145.295 9.95165 145.295 9.65984C145.295 9.36804 145.196 9.13095 144.999 8.94858C144.81 8.7589 144.562 8.66407 144.255 8.66407H142.822Z" fill="#107974"/>
<path d="M155 14.9998C154.927 14.9998 154.88 14.9634 154.858 14.8904L154.529 13.818C154.515 13.7889 154.497 13.7743 154.475 13.7743H151.783C151.761 13.7743 151.743 13.7889 151.728 13.818L151.411 14.8904C151.389 14.9634 151.341 14.9998 151.269 14.9998H149.879C149.835 14.9998 149.802 14.9889 149.78 14.967C149.758 14.9378 149.755 14.8977 149.769 14.8466L152.133 7.44944C152.155 7.37649 152.202 7.34001 152.275 7.34001H153.993C154.066 7.34001 154.114 7.37649 154.136 7.44944L156.499 14.8466C156.506 14.8612 156.51 14.8795 156.51 14.9014C156.51 14.967 156.47 14.9998 156.39 14.9998H155ZM152.122 12.5159C152.115 12.5596 152.129 12.5815 152.166 12.5815H154.092C154.136 12.5815 154.15 12.5596 154.136 12.5159L153.151 9.26591C153.143 9.23673 153.132 9.22579 153.118 9.23308C153.103 9.23308 153.092 9.24403 153.085 9.26591L152.122 12.5159ZM152.505 6.66157C152.454 6.66157 152.421 6.64698 152.407 6.6178C152.392 6.58862 152.396 6.55214 152.418 6.50837L152.997 5.40317C153.027 5.33752 153.081 5.30469 153.162 5.30469H154.267C154.318 5.30469 154.351 5.32293 154.365 5.3594C154.387 5.38858 154.384 5.42506 154.354 5.46883L153.577 6.57403C153.541 6.63239 153.49 6.66157 153.424 6.66157H152.505Z" fill="#107974"/>
<path d="M159.628 14.9998C159.591 14.9998 159.558 14.9889 159.529 14.967C159.507 14.9378 159.496 14.905 159.496 14.8685V7.47132C159.496 7.43485 159.507 7.40567 159.529 7.38378C159.558 7.3546 159.591 7.34001 159.628 7.34001H162.363C162.91 7.34001 163.388 7.4385 163.797 7.63546C164.213 7.82513 164.534 8.09505 164.76 8.44522C164.986 8.79538 165.099 9.20026 165.099 9.65984V12.68C165.099 13.1396 164.986 13.5445 164.76 13.8946C164.534 14.2448 164.213 14.5184 163.797 14.7153C163.388 14.905 162.91 14.9998 162.363 14.9998H159.628ZM161.039 13.6211C161.039 13.6575 161.057 13.6758 161.094 13.6758H162.418C162.754 13.6758 163.023 13.5627 163.228 13.3366C163.439 13.1104 163.549 12.8077 163.556 12.4283V9.91152C163.556 9.53218 163.45 9.22944 163.239 9.00329C163.034 8.77714 162.757 8.66407 162.407 8.66407H161.094C161.057 8.66407 161.039 8.6823 161.039 8.71878V13.6211Z" fill="#107974"/>
<path d="M170.999 15.1202C170.43 15.1202 169.927 15.0035 169.489 14.77C169.059 14.5366 168.723 14.212 168.482 13.7961C168.241 13.373 168.121 12.8879 168.121 12.3408V9.99907C168.121 9.45923 168.241 8.9814 168.482 8.56558C168.723 8.14977 169.059 7.82878 169.489 7.60263C169.927 7.36919 170.43 7.25247 170.999 7.25247C171.575 7.25247 172.079 7.36919 172.509 7.60263C172.947 7.82878 173.286 8.14977 173.527 8.56558C173.767 8.9814 173.888 9.45923 173.888 9.99907V12.3408C173.888 12.8879 173.767 13.373 173.527 13.7961C173.286 14.2193 172.947 14.5475 172.509 14.781C172.079 15.0071 171.575 15.1202 170.999 15.1202ZM170.999 13.7961C171.4 13.7961 171.725 13.6685 171.973 13.4132C172.221 13.1578 172.345 12.8186 172.345 12.3955V9.98812C172.345 9.56501 172.221 9.22579 171.973 8.97046C171.732 8.70784 171.408 8.57653 170.999 8.57653C170.598 8.57653 170.273 8.70784 170.025 8.97046C169.784 9.22579 169.664 9.56501 169.664 9.98812V12.3955C169.664 12.8186 169.784 13.1578 170.025 13.4132C170.273 13.6685 170.598 13.7961 170.999 13.7961Z" fill="#107974"/>
<path d="M178.97 14.9998C178.897 14.9998 178.85 14.9634 178.828 14.8904L176.574 7.49321L176.563 7.44944C176.563 7.37649 176.603 7.34001 176.683 7.34001H178.062C178.142 7.34001 178.193 7.37649 178.215 7.44944L179.67 12.7894C179.678 12.8113 179.689 12.8223 179.703 12.8223C179.718 12.8223 179.729 12.8113 179.736 12.7894L181.17 7.44944C181.191 7.37649 181.243 7.34001 181.323 7.34001H182.669C182.712 7.34001 182.745 7.3546 182.767 7.38378C182.789 7.41296 182.793 7.44944 182.778 7.49321L180.491 14.8904C180.469 14.9634 180.422 14.9998 180.349 14.9998H178.97Z" fill="#107974"/>
<path d="M189.535 14.9998C189.462 14.9998 189.415 14.9634 189.393 14.8904L189.064 13.818C189.05 13.7889 189.032 13.7743 189.01 13.7743H186.318C186.296 13.7743 186.278 13.7889 186.263 13.818L185.946 14.8904C185.924 14.9634 185.877 14.9998 185.804 14.9998H184.414C184.37 14.9998 184.337 14.9889 184.315 14.967C184.293 14.9378 184.29 14.8977 184.304 14.8466L186.668 7.44944C186.69 7.37649 186.737 7.34001 186.81 7.34001H188.528C188.601 7.34001 188.649 7.37649 188.671 7.44944L191.034 14.8466C191.041 14.8612 191.045 14.8795 191.045 14.9014C191.045 14.967 191.005 14.9998 190.925 14.9998H189.535ZM186.657 12.5159C186.65 12.5596 186.664 12.5815 186.701 12.5815H188.627C188.671 12.5815 188.685 12.5596 188.671 12.5159L187.686 9.26591C187.678 9.23673 187.667 9.22579 187.653 9.23308C187.638 9.23308 187.627 9.24403 187.62 9.26591L186.657 12.5159ZM187.04 6.66157C186.989 6.66157 186.956 6.64698 186.942 6.6178C186.927 6.58862 186.931 6.55214 186.953 6.50837L187.533 5.40317C187.562 5.33752 187.616 5.30469 187.697 5.30469H188.802C188.853 5.30469 188.886 5.32293 188.9 5.3594C188.922 5.38858 188.919 5.42506 188.889 5.46883L188.112 6.57403C188.076 6.63239 188.025 6.66157 187.959 6.66157H187.04Z" fill="#107974"/>
<defs>
<linearGradient id="paint0_linear_208_104" x1="23.2222" y1="0.0737305" x2="23.2566" y2="59.1426" gradientUnits="userSpaceOnUse">
<stop stop-color="#59D6B7"/>
<stop offset="1" stop-color="#72D7D1"/>
</linearGradient>
<linearGradient id="paint1_linear_208_104" x1="84" y1="17.9999" x2="84.0129" y2="49.8501" gradientUnits="userSpaceOnUse">
<stop stop-color="#59D6B7"/>
<stop offset="1" stop-color="#72D7D1"/>
</linearGradient>
<linearGradient id="paint2_linear_208_104" x1="84" y1="17.9999" x2="84.0129" y2="49.8501" gradientUnits="userSpaceOnUse">
<stop stop-color="#59D6B7"/>
<stop offset="1" stop-color="#72D7D1"/>
</linearGradient>
<linearGradient id="paint3_linear_208_104" x1="84" y1="17.9999" x2="84.0129" y2="49.8501" gradientUnits="userSpaceOnUse">
<stop stop-color="#59D6B7"/>
<stop offset="1" stop-color="#72D7D1"/>
</linearGradient>
</defs>
</svg>
